{
	"asset":{
		"generator":"Khronos glTF Blender I/O v5.0.21",
		"version":"2.0"
	},
	"scene":0,
	"scenes":[
		{
			"name":"Scene",
			"nodes":[
				0
			]
		}
	],
	"nodes":[
		{
			"mesh":0,
			"name":"Closed door_Black metal_0",
			"rotation":[
				-0.7071066498756409,
				0,
				0,
				0.70710688829422
			],
			"translation":[
				0,
				1.8029325008392334,
				0.1642652153968811
			]
		}
	],
	"materials":[
		{
			"doubleSided":true,
			"name":"Black_metal",
			"normalTexture":{
				"index":0
			},
			"pbrMetallicRoughness":{
				"baseColorTexture":{
					"index":1
				},
				"metallicRoughnessTexture":{
					"index":2
				}
			}
		},
		{
			"doubleSided":true,
			"name":"Wood",
			"normalTexture":{
				"index":3
			},
			"pbrMetallicRoughness":{
				"baseColorTexture":{
					"index":4
				},
				"metallicRoughnessTexture":{
					"index":5
				}
			}
		},
		{
			"doubleSided":true,
			"name":"Large_wall",
			"normalTexture":{
				"index":6
			},
			"pbrMetallicRoughness":{
				"baseColorTexture":{
					"index":7
				},
				"metallicFactor":0,
				"metallicRoughnessTexture":{
					"index":8
				}
			}
		}
	],
	"meshes":[
		{
			"name":"Closed door_Black metal_0",
			"primitives":[
				{
					"attributes":{
						"POSITION":0,
						"NORMAL":1,
						"TEXCOORD_0":2,
						"TEXCOORD_1":3
					},
					"indices":4,
					"material":0
				},
				{
					"attributes":{
						"POSITION":5,
						"NORMAL":6,
						"TEXCOORD_0":7,
						"TEXCOORD_1":8
					},
					"indices":9,
					"material":1
				},
				{
					"attributes":{
						"POSITION":10,
						"NORMAL":11,
						"TEXCOORD_0":12,
						"TEXCOORD_1":13
					},
					"indices":14,
					"material":2
				}
			]
		}
	],
	"textures":[
		{
			"sampler":0,
			"source":0
		},
		{
			"sampler":0,
			"source":1
		},
		{
			"sampler":0,
			"source":2
		},
		{
			"sampler":0,
			"source":3
		},
		{
			"sampler":0,
			"source":4
		},
		{
			"sampler":0,
			"source":5
		},
		{
			"sampler":0,
			"source":6
		},
		{
			"sampler":0,
			"source":7
		},
		{
			"sampler":0,
			"source":8
		}
	],
	"images":[
		{
			"mimeType":"image/png",
			"name":"Black_metal_normal.png",
			"uri":"../../Desktop/free_modular_dungeon_assets/textures/Black_metal_normal.png"
		},
		{
			"mimeType":"image/png",
			"name":"Black_metal_baseColor.png",
			"uri":"../../Desktop/free_modular_dungeon_assets/textures/Black_metal_baseColor.png"
		},
		{
			"mimeType":"image/png",
			"name":"Black_metal_metallicRoughness.png",
			"uri":"../../Desktop/free_modular_dungeon_assets/textures/Black_metal_metallicRoughness.png"
		},
		{
			"mimeType":"image/png",
			"name":"Wood_normal.png",
			"uri":"../../Desktop/free_modular_dungeon_assets/textures/Wood_normal.png"
		},
		{
			"mimeType":"image/png",
			"name":"Wood_baseColor.png",
			"uri":"../../Desktop/free_modular_dungeon_assets/textures/Wood_baseColor.png"
		},
		{
			"mimeType":"image/png",
			"name":"Wood_metallicRoughness.png",
			"uri":"../../Desktop/free_modular_dungeon_assets/textures/Wood_metallicRoughness.png"
		},
		{
			"mimeType":"image/png",
			"name":"Large_wall_normal.png",
			"uri":"../../Desktop/free_modular_dungeon_assets/textures/Large_wall_normal.png"
		},
		{
			"mimeType":"image/png",
			"name":"Large_wall_baseColor.png",
			"uri":"../../Desktop/free_modular_dungeon_assets/textures/Large_wall_baseColor.png"
		},
		{
			"mimeType":"image/png",
			"name":"Large_wall_metallicRoughness.png",
			"uri":"../../Desktop/free_modular_dungeon_assets/textures/Large_wall_metallicRoughness.png"
		}
	],
	"accessors":[
		{
			"bufferView":0,
			"componentType":5126,
			"count":1200,
			"max":[
				0.7432715892791748,
				0.15378189086914062,
				0.530834436416626
			],
			"min":[
				-0.743358850479126,
				-0.10601350665092468,
				-1.7685863971710205
			],
			"type":"VEC3"
		},
		{
			"bufferView":1,
			"componentType":5126,
			"count":1200,
			"type":"VEC3"
		},
		{
			"bufferView":2,
			"componentType":5126,
			"count":1200,
			"type":"VEC2"
		},
		{
			"bufferView":3,
			"componentType":5126,
			"count":1200,
			"type":"VEC2"
		},
		{
			"bufferView":4,
			"componentType":5123,
			"count":5376,
			"type":"SCALAR"
		},
		{
			"bufferView":5,
			"componentType":5126,
			"count":47,
			"max":[
				0.6544556617736816,
				-0.002788543701171875,
				0.4136390686035156
			],
			"min":[
				-0.6524500846862793,
				-0.002788543701171875,
				-1.771829605102539
			],
			"type":"VEC3"
		},
		{
			"bufferView":6,
			"componentType":5126,
			"count":47,
			"type":"VEC3"
		},
		{
			"bufferView":7,
			"componentType":5126,
			"count":47,
			"type":"VEC2"
		},
		{
			"bufferView":8,
			"componentType":5126,
			"count":47,
			"type":"VEC2"
		},
		{
			"bufferView":9,
			"componentType":5123,
			"count":69,
			"type":"SCALAR"
		},
		{
			"bufferView":10,
			"componentType":5126,
			"count":1620,
			"max":[
				2.012479305267334,
				0.279442697763443,
				0.6375769376754761
			],
			"min":[
				-1.9957128763198853,
				0.04897696524858475,
				-1.8351569175720215
			],
			"type":"VEC3"
		},
		{
			"bufferView":11,
			"componentType":5126,
			"count":1620,
			"type":"VEC3"
		},
		{
			"bufferView":12,
			"componentType":5126,
			"count":1620,
			"type":"VEC2"
		},
		{
			"bufferView":13,
			"componentType":5126,
			"count":1620,
			"type":"VEC2"
		},
		{
			"bufferView":14,
			"componentType":5123,
			"count":2142,
			"type":"SCALAR"
		}
	],
	"bufferViews":[
		{
			"buffer":0,
			"byteLength":14400,
			"byteOffset":0,
			"target":34962
		},
		{
			"buffer":0,
			"byteLength":14400,
			"byteOffset":14400,
			"target":34962
		},
		{
			"buffer":0,
			"byteLength":9600,
			"byteOffset":28800,
			"target":34962
		},
		{
			"buffer":0,
			"byteLength":9600,
			"byteOffset":38400,
			"target":34962
		},
		{
			"buffer":0,
			"byteLength":10752,
			"byteOffset":48000,
			"target":34963
		},
		{
			"buffer":0,
			"byteLength":564,
			"byteOffset":58752,
			"target":34962
		},
		{
			"buffer":0,
			"byteLength":564,
			"byteOffset":59316,
			"target":34962
		},
		{
			"buffer":0,
			"byteLength":376,
			"byteOffset":59880,
			"target":34962
		},
		{
			"buffer":0,
			"byteLength":376,
			"byteOffset":60256,
			"target":34962
		},
		{
			"buffer":0,
			"byteLength":138,
			"byteOffset":60632,
			"target":34963
		},
		{
			"buffer":0,
			"byteLength":19440,
			"byteOffset":60772,
			"target":34962
		},
		{
			"buffer":0,
			"byteLength":19440,
			"byteOffset":80212,
			"target":34962
		},
		{
			"buffer":0,
			"byteLength":12960,
			"byteOffset":99652,
			"target":34962
		},
		{
			"buffer":0,
			"byteLength":12960,
			"byteOffset":112612,
			"target":34962
		},
		{
			"buffer":0,
			"byteLength":4284,
			"byteOffset":125572,
			"target":34963
		}
	],
	"samplers":[
		{
			"magFilter":9729,
			"minFilter":9987
		}
	],
	"buffers":[
		{
			"byteLength":129856,
			"uri":"door.bin"
		}
	]
}
