{
	"asset":{
		"generator":"Khronos glTF Blender I/O v5.0.21",
		"version":"2.0"
	},
	"scene":0,
	"scenes":[
		{
			"name":"Scene",
			"nodes":[
				0
			]
		}
	],
	"nodes":[
		{
			"mesh":0,
			"name":"Stone slab 4x4_Stone slab floor_0",
			"rotation":[
				0.70710688829422,
				0,
				0,
				0.7071066498756409
			]
		}
	],
	"materials":[
		{
			"doubleSided":true,
			"name":"Stone_slab_floor",
			"normalTexture":{
				"index":0
			},
			"pbrMetallicRoughness":{
				"baseColorTexture":{
					"index":1
				},
				"metallicRoughnessTexture":{
					"index":2
				}
			}
		}
	],
	"meshes":[
		{
			"name":"Stone slab 4x4_Stone slab floor_0",
			"primitives":[
				{
					"attributes":{
						"POSITION":0,
						"NORMAL":1,
						"TEXCOORD_0":2,
						"TEXCOORD_1":3
					},
					"indices":4,
					"material":0
				}
			]
		}
	],
	"textures":[
		{
			"sampler":0,
			"source":0
		},
		{
			"sampler":0,
			"source":1
		},
		{
			"sampler":0,
			"source":2
		}
	],
	"images":[
		{
			"mimeType":"image/png",
			"name":"Black_metal_normal.png",
			"uri":"../../Desktop/free_modular_dungeon_assets/textures/Black_metal_normal.png"
		},
		{
			"mimeType":"image/png",
			"name":"Black_metal_baseColor.png",
			"uri":"../../Desktop/free_modular_dungeon_assets/textures/Black_metal_baseColor.png"
		},
		{
			"mimeType":"image/png",
			"name":"Stone_slab_floor_metallicRoughness.png",
			"uri":"../../Desktop/free_modular_dungeon_assets/textures/Stone_slab_floor_metallicRoughness.png"
		}
	],
	"accessors":[
		{
			"bufferView":0,
			"componentType":5126,
			"count":1542,
			"max":[
				2.0129077434539795,
				2.0122480392456055,
				0.10573457181453705
			],
			"min":[
				-2.0150201320648193,
				-2.0164175033569336,
				-0.10574394464492798
			],
			"type":"VEC3"
		},
		{
			"bufferView":1,
			"componentType":5126,
			"count":1542,
			"type":"VEC3"
		},
		{
			"bufferView":2,
			"componentType":5126,
			"count":1542,
			"type":"VEC2"
		},
		{
			"bufferView":3,
			"componentType":5126,
			"count":1542,
			"type":"VEC2"
		},
		{
			"bufferView":4,
			"componentType":5123,
			"count":2112,
			"type":"SCALAR"
		}
	],
	"bufferViews":[
		{
			"buffer":0,
			"byteLength":18504,
			"byteOffset":0,
			"target":34962
		},
		{
			"buffer":0,
			"byteLength":18504,
			"byteOffset":18504,
			"target":34962
		},
		{
			"buffer":0,
			"byteLength":12336,
			"byteOffset":37008,
			"target":34962
		},
		{
			"buffer":0,
			"byteLength":12336,
			"byteOffset":49344,
			"target":34962
		},
		{
			"buffer":0,
			"byteLength":4224,
			"byteOffset":61680,
			"target":34963
		}
	],
	"samplers":[
		{
			"magFilter":9729,
			"minFilter":9987
		}
	],
	"buffers":[
		{
			"byteLength":65904,
			"uri":"floor.bin"
		}
	]
}
