{
	"asset":{
		"generator":"Khronos glTF Blender I/O v5.0.21",
		"version":"2.0"
	},
	"scene":0,
	"scenes":[
		{
			"name":"Scene",
			"nodes":[
				0
			]
		}
	],
	"nodes":[
		{
			"mesh":0,
			"name":"Large brickwall 4x4_Large wall_0",
			"rotation":[
				0.70710688829422,
				0,
				0,
				0.7071066498756409
			]
		}
	],
	"materials":[
		{
			"doubleSided":true,
			"name":"Large_wall",
			"normalTexture":{
				"index":0
			},
			"pbrMetallicRoughness":{
				"baseColorTexture":{
					"index":1
				},
				"metallicFactor":0,
				"metallicRoughnessTexture":{
					"index":2
				}
			}
		}
	],
	"meshes":[
		{
			"name":"Large brickwall 4x4_Large wall_0",
			"primitives":[
				{
					"attributes":{
						"POSITION":0,
						"NORMAL":1,
						"TEXCOORD_0":2,
						"TEXCOORD_1":3
					},
					"indices":4,
					"material":0
				}
			]
		}
	],
	"textures":[
		{
			"sampler":0,
			"source":0
		},
		{
			"sampler":0,
			"source":1
		},
		{
			"sampler":0,
			"source":2
		}
	],
	"images":[
		{
			"mimeType":"image/png",
			"name":"Large_wall_normal.png",
			"uri":"../../Desktop/free_modular_dungeon_assets/textures/Large_wall_normal.png"
		},
		{
			"mimeType":"image/png",
			"name":"Large_wall_baseColor.png",
			"uri":"../../Desktop/free_modular_dungeon_assets/textures/Large_wall_baseColor.png"
		},
		{
			"mimeType":"image/png",
			"name":"Large_wall_metallicRoughness.png",
			"uri":"../../Desktop/free_modular_dungeon_assets/textures/Large_wall_metallicRoughness.png"
		}
	],
	"accessors":[
		{
			"bufferView":0,
			"componentType":5126,
			"count":1620,
			"max":[
				2.012479305267334,
				0.11528786271810532,
				0.032224297523498535
			],
			"min":[
				-1.9957128763198853,
				-0.11517766863107681,
				-2.44050931930542
			],
			"type":"VEC3"
		},
		{
			"bufferView":1,
			"componentType":5126,
			"count":1620,
			"type":"VEC3"
		},
		{
			"bufferView":2,
			"componentType":5126,
			"count":1620,
			"type":"VEC2"
		},
		{
			"bufferView":3,
			"componentType":5126,
			"count":1620,
			"type":"VEC2"
		},
		{
			"bufferView":4,
			"componentType":5123,
			"count":2142,
			"type":"SCALAR"
		}
	],
	"bufferViews":[
		{
			"buffer":0,
			"byteLength":19440,
			"byteOffset":0,
			"target":34962
		},
		{
			"buffer":0,
			"byteLength":19440,
			"byteOffset":19440,
			"target":34962
		},
		{
			"buffer":0,
			"byteLength":12960,
			"byteOffset":38880,
			"target":34962
		},
		{
			"buffer":0,
			"byteLength":12960,
			"byteOffset":51840,
			"target":34962
		},
		{
			"buffer":0,
			"byteLength":4284,
			"byteOffset":64800,
			"target":34963
		}
	],
	"samplers":[
		{
			"magFilter":9729,
			"minFilter":9987
		}
	],
	"buffers":[
		{
			"byteLength":69084,
			"uri":"waal.bin"
		}
	]
}
